<svg xmlns="http://www.w3.org/2000/svg" xmlns:xlink="http://www.w3.org/1999/xlink" width="42" height="42" viewBox="0 0 42 42">
  <defs>
    <clipPath id="clip-path">
      <circle id="Elipse_2" data-name="Elipse 2" cx="21" cy="21" r="21" transform="translate(137.792 43)" fill="#fff"/>
    </clipPath>
  </defs>
  <g id="Enmascarar_grupo_2" data-name="Enmascarar grupo 2" transform="translate(-137.792 -43)" clip-path="url(#clip-path)">
    <g id="linkedin" transform="translate(137.792 43)">
      <circle id="Elipse_19" data-name="Elipse 19" cx="21" cy="21" r="21" transform="translate(0 0)" fill="#23272b"/>
      <g id="Grupo_29" data-name="Grupo 29">
        <path id="Trazado_608" data-name="Trazado 608" d="M33.547,22.689v8.658h-5.02V23.27c0-2.028-.725-3.413-2.542-3.413a2.746,2.746,0,0,0-2.575,1.835,3.436,3.436,0,0,0-.166,1.223v8.432h-5.02s.067-13.681,0-15.1h5.02v2.139c-.01.017-.024.033-.033.049h.033v-.049A4.984,4.984,0,0,1,27.769,15.9c3.3,0,5.778,2.158,5.778,6.794ZM12.973,8.973a2.616,2.616,0,1,0-.066,5.217h.033a2.617,2.617,0,1,0,.033-5.217ZM10.431,31.347h5.018V16.25H10.431Z" fill="#fafcfc"/>
      </g>
    </g>
  </g>
</svg>
