<svg xmlns="http://www.w3.org/2000/svg" xmlns:xlink="http://www.w3.org/1999/xlink" width="42" height="42" viewBox="0 0 42 42">
  <defs>
    <clipPath id="clip-path">
      <circle id="Elipse_21" data-name="Elipse 21" cx="21" cy="21" r="21" transform="translate(-0.208 43)" fill="#ffa443"/>
    </clipPath>
  </defs>
  <g id="insta" transform="translate(0.208 -43)" clip-path="url(#clip-path)">
    <g id="instagram" transform="translate(-0.208 43)">
      <path id="Trazado_620" data-name="Trazado 620" d="M41.281,7.512A7.647,7.647,0,0,0,34.488.719a126.855,126.855,0,0,0-26.975,0A7.648,7.648,0,0,0,.719,7.512a126.855,126.855,0,0,0,0,26.975,7.648,7.648,0,0,0,6.793,6.794,126.858,126.858,0,0,0,26.975,0,7.647,7.647,0,0,0,6.793-6.794,126.855,126.855,0,0,0,0-26.975Zm0,0" fill="#ffa443"/>
      <path id="Trazado_621" data-name="Trazado 621" d="M39,9.031A6.786,6.786,0,0,0,32.969,3,112.612,112.612,0,0,0,9.031,3,6.787,6.787,0,0,0,3,9.031,112.609,112.609,0,0,0,3,32.968,6.786,6.786,0,0,0,9.031,39a112.566,112.566,0,0,0,23.937,0A6.786,6.786,0,0,0,39,32.968,112.566,112.566,0,0,0,39,9.031Zm0,0" fill="#ffa443"/>
      <path id="Trazado_622" data-name="Trazado 622" d="M.629,33.617q.043.435.09.871a7.648,7.648,0,0,0,6.794,6.793,126.855,126.855,0,0,0,26.975,0,7.647,7.647,0,0,0,6.793-6.793q.047-.435.09-.871Zm0,0" fill="#ffa443"/>
      <path id="Trazado_623" data-name="Trazado 623" d="M41.281,34.487A126.965,126.965,0,0,0,42,19.993l-9.6-9.6a6.876,6.876,0,0,0-5.01-2.3c-4.233-.153-8.48-.145-12.714,0a6.794,6.794,0,0,0-6.606,5.958c-.111.613-.178,1.235-.265,1.852V26.09c.048.33.12.658.142.99a7.4,7.4,0,0,0,2.4,5.147L20.111,42a126.969,126.969,0,0,0,14.377-.716,7.647,7.647,0,0,0,6.793-6.794Zm0,0" fill="#ffa443"/>
      <path id="Trazado_624" data-name="Trazado 624" d="M41.281,34.488a7.648,7.648,0,0,1-6.793,6.793A127.038,127.038,0,0,1,20.111,42l-9.755-9.755A6.84,6.84,0,0,0,14.672,33.9c4.233.159,8.481.155,12.714,0A6.8,6.8,0,0,0,34.1,27.1c.128-4.065.128-8.141,0-12.206a7.086,7.086,0,0,0-1.7-4.5L42,19.993a127.193,127.193,0,0,1-.715,14.495Zm0,0" fill="#ffa443"/>
      <path id="Trazado_625" data-name="Trazado 625" d="M25.956,16.452a6.726,6.726,0,1,0-9.5,9.5L32.016,41.52q1.236-.108,2.471-.239a7.648,7.648,0,0,0,6.794-6.794q.132-1.235.239-2.471Zm0,0" fill="#ffa443"/>
      <path id="Trazado_626" data-name="Trazado 626" d="M41.919,25.524,29.392,13a1.6,1.6,0,1,0-2.24,2.24L41.695,29.781q.148-2.128.224-4.257Zm0,0" fill="#ffa443"/>
      <path id="Trazado_627" data-name="Trazado 627" d="M7.8,15.906c.087-.618.154-1.239.265-1.852A6.794,6.794,0,0,1,14.672,8.1c4.234-.145,8.481-.153,12.714,0a6.8,6.8,0,0,1,6.719,6.8q.191,6.1,0,12.206a6.8,6.8,0,0,1-6.718,6.8c-4.233.153-8.481.157-12.714,0a6.921,6.921,0,0,1-6.73-6.819c-.022-.332-.093-.66-.142-.99V15.906ZM21,31.632c1.937,0,3.877.058,5.811-.013,3.034-.112,4.9-1.923,4.97-4.954q.132-5.664,0-11.334a4.7,4.7,0,0,0-4.97-4.947q-5.773-.122-11.55,0A4.669,4.669,0,0,0,10.3,15.258q-.156,5.736,0,11.479c.082,3,1.953,4.77,4.963,4.881,1.91.071,3.826.013,5.739.013Zm0,0" fill="#ffa443"/>
      <g id="Grupo_47" data-name="Grupo 47">
        <path id="Trazado_628" data-name="Trazado 628" d="M7.8,15.906c.087-.618.154-1.239.265-1.852A6.794,6.794,0,0,1,14.672,8.1c4.234-.145,8.481-.153,12.714,0a6.8,6.8,0,0,1,6.719,6.8q.191,6.1,0,12.206a6.8,6.8,0,0,1-6.718,6.8c-4.233.153-8.481.157-12.714,0a6.921,6.921,0,0,1-6.73-6.819c-.022-.332-.093-.66-.142-.99V15.906ZM21,31.632c1.937,0,3.877.058,5.811-.013,3.034-.112,4.9-1.923,4.97-4.954q.132-5.664,0-11.334a4.7,4.7,0,0,0-4.97-4.947q-5.773-.122-11.55,0A4.669,4.669,0,0,0,10.3,15.258q-.156,5.736,0,11.479c.082,3,1.953,4.77,4.963,4.881,1.91.071,3.826.013,5.739.013Zm0,0" fill="#fafcfc"/>
        <path id="Trazado_629" data-name="Trazado 629" d="M21,14.273A6.727,6.727,0,1,0,27.727,21,6.727,6.727,0,0,0,21,14.273Zm0,11.138A4.411,4.411,0,1,1,25.411,21,4.411,4.411,0,0,1,21,25.411Zm0,0" fill="#fff"/>
        <path id="Trazado_630" data-name="Trazado 630" d="M29.72,13.966a1.6,1.6,0,1,1-1.6-1.6A1.6,1.6,0,0,1,29.72,13.966Zm0,0" fill="#fff"/>
      </g>
    </g>
  </g>
</svg>
