<svg xmlns="http://www.w3.org/2000/svg" xmlns:xlink="http://www.w3.org/1999/xlink" width="51" height="49" viewBox="0 0 51 49">
  <defs>
    <clipPath id="clip-path">
      <ellipse id="Elipse_23" data-name="Elipse 23" cx="25.5" cy="24.5" rx="25.5" ry="24.5" transform="translate(60.292 36.5)" fill="#fafcfc"/>
    </clipPath>
  </defs>
  <g id="youtube" transform="translate(-60.292 -36.5)" clip-path="url(#clip-path)">
    <ellipse id="Elipse_22" data-name="Elipse 22" cx="20.176" cy="21" rx="20.176" ry="21" transform="translate(65.615 40)" fill="#ffa443"/>
    <path id="youtube-2" data-name="youtube" d="M22.664,6.14H5.941A5.941,5.941,0,0,0,0,12.081v8.36a5.941,5.941,0,0,0,5.941,5.941H22.664A5.941,5.941,0,0,0,28.6,20.441v-8.36A5.941,5.941,0,0,0,22.664,6.14ZM18.646,16.667,10.824,20.4a.314.314,0,0,1-.449-.283V12.42a.314.314,0,0,1,.456-.28L18.653,16.1A.314.314,0,0,1,18.646,16.667Z" transform="translate(71.489 44.739)" fill="#fafcfc"/>
  </g>
</svg>
