<svg id="Capa_1" enable-background="new 0 0 511.999 511.999" height="512" viewBox="0 0 511.999 511.999" width="512" xmlns="http://www.w3.org/2000/svg"><g><g><path d="m256.354 183.73c4.143 0 7.5-3.358 7.5-7.5v-7.172c0-4.142-3.357-7.5-7.5-7.5s-7.5 3.358-7.5 7.5v7.172c0 4.142 3.358 7.5 7.5 7.5z"/><path d="m178.515 161.558c-4.143 0-7.5 3.358-7.5 7.5v7.172c0 4.142 3.357 7.5 7.5 7.5s7.5-3.358 7.5-7.5v-7.172c0-4.142-3.358-7.5-7.5-7.5z"/><path d="m217.43 239.114h.024c7.596-.006 14.73-2.972 20.09-8.35 2.924-2.934 2.916-7.683-.019-10.606-2.936-2.924-7.685-2.916-10.606.019-2.528 2.537-5.894 3.935-9.477 3.938-.004 0-.008 0-.012 0-3.593 0-6.973-1.401-9.518-3.947-2.929-2.928-7.678-2.929-10.606 0-2.93 2.929-2.93 7.678-.001 10.606 5.38 5.378 12.525 8.34 20.125 8.34z"/><path d="m499.936 425.726h-13.538l25.023-121.926c1.645-8.003-.282-16.114-5.288-22.253-4.521-5.545-10.861-8.726-17.395-8.726h-62.22c-4.143 0-7.5 3.358-7.5 7.5s3.357 7.5 7.5 7.5h62.22c1.946 0 4.157 1.228 5.769 3.205 1.261 1.546 3.226 4.869 2.221 9.757l-25.643 124.944h-171.633l5.209-25.377c.002-.011.003-.022.005-.033l20.718-100.971c1.089-5.316 5.289-11.523 13.544-11.523h51.987c4.143 0 7.5-3.358 7.5-7.5s-3.357-7.5-7.5-7.5h-51.987c-11.035 0-20.399 5.878-25.294 15.24l-43.062-13.276v-14.317c18.037-13.997 32.56-33.231 39.838-52.846 18.599-.882 36.782-11.73 36.782-31.535v-8.051c0-12.107-9.875-21.957-22.013-21.957h-8.708c4.131-36.64 3.176-74.149-32.016-104.063-21.059-17.901-58.822-26.515-89.797-20.478-16.619 3.239-29.266 10.509-36.087 20.646-16.751 3.707-29.825 12.413-37.949 25.32-8.152 12.95-11.143 29.895-8.648 49.002l3.856 29.572h-8.665c-12.138 0-22.013 9.85-22.013 21.957v8.051c0 19.793 18.16 30.639 36.807 31.534 7.273 19.613 21.786 38.845 39.813 52.842v14.322l-59.332 18.294c-17.184 5.282-30.163 17.084-37.827 34.252h-5.664c-8.372 0-15.199 6.667-15.494 14.967h-17.019c-10.153 0-18.413 8.248-18.413 18.385v27.271c0 10.138 8.26 18.385 18.413 18.385h16.991v7.949c0 4.094.937 7.973 2.607 11.436h-33.97c-6.652.001-12.064 5.426-12.064 12.094v42.493c0 6.652 5.412 12.063 12.063 12.063h209.708c4.143 0 7.5-3.358 7.5-7.5s-3.357-7.5-7.5-7.5h-206.771v-36.648h481.999v36.648h-240.616c-4.143 0-7.5 3.358-7.5 7.5s3.357 7.5 7.5 7.5h243.553c6.651 0 12.063-5.412 12.063-12.063v-42.493c0-6.668-5.412-12.093-12.063-12.093zm-167.744-257.689v8.051c0 8.841-8.131 14.286-17.589 16.004.588-3.599.897-7.168.897-10.675v-20.337h9.679c3.868 0 7.013 3.121 7.013 6.957zm-134.663-131.774c5.672-1.106 11.654-1.634 17.729-1.634 22.23 0 45.672 7.077 59.483 18.817 26.453 22.486 30.088 50.222 27.899 79.72-18.407-17.583-45.221-16.219-69.46-14.993-21.632 1.098-42.069 2.127-56.424-8.482-11.548-10.513-12.588-43.228-6.687-57.549 4.095-7.586 13.827-13.222 27.46-15.879zm-44.846 23.423c-1.188 7.445-1.5 15.869-.785 24.127.755 8.709 3.339 23.895 11.973 34.052-3.241 12.351-14.656 17.483-29.065 22.749-1.504.55-2.957 1.081-4.35 1.614l-3.607-27.659c-3.547-27.176 5.781-46.57 25.834-54.883zm-52.53 116.402v-8.051c0-3.836 3.146-6.957 7.013-6.957h9.707v20.337c0 3.506.309 7.074.896 10.673-9.49-1.72-17.616-7.164-17.616-16.002zm31.72 5.329v-23.542c2.252-1.042 5.196-2.119 8.081-3.173 12.147-4.439 29.531-10.793 36.646-27.688 17.133 8.177 37.521 7.144 57.34 6.14 28.815-1.461 53.764-2.706 66.561 22.215v26.049c0 30.654-29.877 68.645-63.933 81.298-7.642 2.833-14.118 4.153-20.381 4.153-6.283 0-12.769-1.32-20.405-4.151-34.045-12.65-63.909-50.641-63.909-81.301zm58.689 95.363c9.363 3.472 17.506 5.088 25.625 5.088 8.099 0 16.232-1.617 25.601-5.09 4.697-1.745 9.303-3.902 13.784-6.386v16.222c0 15.817-19.82 24.093-39.399 24.093s-39.399-8.276-39.399-24.093v-16.223c4.482 2.485 9.09 4.643 13.788 6.389zm-83.708 30.636 55.146-17.004c1.2 10.746 7.502 19.999 18.076 26.331 9.653 5.78 22.473 8.964 36.097 8.964s26.443-3.184 36.097-8.964c10.575-6.332 16.876-15.585 18.076-26.332l39.086 12.05-18.237 88.879h-55.137c-7.965 0-14.444 6.493-14.444 14.473v10.233c0 3.434.707 6.705 1.979 9.679h-91.748c1.67-3.463 2.607-7.342 2.607-11.436v-71.435c0-8.559-6.963-15.522-15.522-15.522h-37.46c5.942-9.864 14.438-16.552 25.384-19.916zm-80.418 83.925c-1.85 0-3.413-1.55-3.413-3.385v-27.271c0-1.835 1.563-3.385 3.413-3.385h16.991v34.041zm43.455 34.385c-6.321 0-11.464-5.13-11.464-11.436v-71.435c0-.278.244-.522.522-.522h59.98c.278 0 .522.244.522.522v71.435c0 6.306-5.143 11.436-11.464 11.436zm166.722-9.678v-9.707h51.504l-3.743 18.244-.234 1.141h-37.849c-5.336 0-9.678-4.341-9.678-9.678z"/><path d="m378.069 358.887c-.37 6.749 1.959 13.141 6.56 18 4.725 4.991 11.226 7.74 18.305 7.74 14.046 0 26.053-11.189 26.764-24.92.37-6.751-1.96-13.146-6.562-18.008-4.721-4.987-11.211-7.733-18.273-7.733-14.023 0-26.043 11.18-26.794 24.921zm14.978.819c.318-5.822 5.729-10.74 11.814-10.74 2.9 0 5.521 1.082 7.381 3.045 1.74 1.838 2.62 4.28 2.477 6.897-.301 5.81-5.698 10.718-11.785 10.718-2.916 0-5.549-1.084-7.412-3.052-1.739-1.835-2.618-4.274-2.475-6.868z"/></g></g></svg>