<svg xmlns="http://www.w3.org/2000/svg" width="98" height="68.616" viewBox="0 0 98 68.616">
  <g id="youtube" transform="translate(0 0)">
    <path id="Trazado_601" data-name="Trazado 601" d="M95.981,10.737A12.278,12.278,0,0,0,87.344,2.1C79.675,0,49,0,49,0S18.324,0,10.655,2.019a12.529,12.529,0,0,0-8.637,8.718C0,18.4,0,34.308,0,34.308S0,50.291,2.018,57.879a12.28,12.28,0,0,0,8.638,8.638C18.4,68.616,49,68.616,49,68.616s30.675,0,38.344-2.019a12.278,12.278,0,0,0,8.638-8.637C98,50.291,98,34.389,98,34.389S98.08,18.4,95.981,10.737Zm0,0" fill="red"/>
    <path id="Trazado_602" data-name="Trazado 602" d="M204.969,131.868l25.509-14.692-25.509-14.692Zm0,0" transform="translate(-165.737 -82.868)" fill="#fff"/>
  </g>
</svg>
