<svg xmlns="http://www.w3.org/2000/svg" width="70" height="46" viewBox="0 0 70 46">
  <g id="email" transform="translate(-2 -14)">
    <g id="_2_PT" data-name="2 PT">
      <path id="Trazado_603" data-name="Trazado 603" d="M67,60H7a5.006,5.006,0,0,1-5-5V19a5.006,5.006,0,0,1,5-5H67a5.006,5.006,0,0,1,5,5V55a5.006,5.006,0,0,1-5,5ZM7,16a3,3,0,0,0-3,3V55a3,3,0,0,0,3,3H67a3,3,0,0,0,3-3V19a3,3,0,0,0-3-3Z" fill="#f8f9fa"/>
      <path id="Trazado_604" data-name="Trazado 604" d="M37,47a1,1,0,0,1-.652-.242L2.808,17.908l1.3-1.517L37,44.681l32.888-28.29,1.3,1.517-33.54,28.85A1,1,0,0,1,37,47Z" fill="#f8f9fa"/>
      <path id="Trazado_605" data-name="Trazado 605" d="M58.37,31.595h2v30.4h-2Z" transform="translate(-16.016 52.413) rotate(-42.528)" fill="#f8f9fa"/>
      <path id="Trazado_606" data-name="Trazado 606" d="M-.741,45.645H29.652v2H-.741Z" transform="matrix(0.675, -0.737, 0.737, 0.675, -29.706, 25.8)" fill="#f8f9fa"/>
    </g>
  </g>
</svg>
