<svg xmlns="http://www.w3.org/2000/svg" xmlns:xlink="http://www.w3.org/1999/xlink" width="94.897" height="94.896" viewBox="0 0 94.897 94.896">
  <defs>
    <clipPath id="clip-path">
      <circle id="Elipse_21" data-name="Elipse 21" cx="47.448" cy="47.448" r="47.448" transform="translate(-0.208 61)" fill="#ffa443"/>
    </clipPath>
  </defs>
  <g id="insta" transform="translate(0.208 -61)" clip-path="url(#clip-path)">
    <g id="instagram" transform="translate(-0.208 61)">
      <path id="Trazado_620" data-name="Trazado 620" d="M93.272,16.974A17.278,17.278,0,0,0,77.923,1.625a286.622,286.622,0,0,0-60.949,0A17.279,17.279,0,0,0,1.625,16.974a286.622,286.622,0,0,0,0,60.949,17.279,17.279,0,0,0,15.349,15.35,286.628,286.628,0,0,0,60.949,0,17.279,17.279,0,0,0,15.349-15.35,286.62,286.62,0,0,0,0-60.949Zm0,0" transform="translate(0 0)" fill="#ffa443"/>
      <path id="Trazado_621" data-name="Trazado 621" d="M85.131,17.427A15.333,15.333,0,0,0,71.512,3.806a254.439,254.439,0,0,0-54.084,0A15.335,15.335,0,0,0,3.806,17.427a254.432,254.432,0,0,0,0,54.084A15.333,15.333,0,0,0,17.427,85.131a254.335,254.335,0,0,0,54.084,0A15.332,15.332,0,0,0,85.131,71.511a254.338,254.338,0,0,0,0-54.084Zm0,0" transform="translate(2.979 2.979)" fill="#ffa443"/>
      <path id="Trazado_622" data-name="Trazado 622" d="M.629,33.617q.1.984.2,1.968a17.279,17.279,0,0,0,15.35,15.349,286.621,286.621,0,0,0,60.949,0A17.279,17.279,0,0,0,92.479,35.585q.105-.984.2-1.968Zm0,0" transform="translate(0.793 42.338)" fill="#ffa443"/>
      <path id="Trazado_623" data-name="Trazado 623" d="M83.448,67.868a286.876,286.876,0,0,0,1.615-32.75L63.371,13.427A15.536,15.536,0,0,0,52.052,8.235c-9.565-.345-19.16-.327-28.726,0C15.381,8.51,9.825,13.85,8.4,21.7c-.251,1.386-.4,2.79-.6,4.185v23.01c.109.746.27,1.488.32,2.238a16.728,16.728,0,0,0,5.422,11.63L35.616,84.835A286.875,286.875,0,0,0,68.1,83.218a17.279,17.279,0,0,0,15.349-15.35Zm0,0" transform="translate(9.824 10.054)" fill="#ffa443"/>
      <path id="Trazado_624" data-name="Trazado 624" d="M80.228,64.826A17.279,17.279,0,0,1,64.879,80.175,287.033,287.033,0,0,1,32.4,81.793l-22.04-22.04a15.454,15.454,0,0,0,9.75,3.744c9.564.359,19.161.35,28.725.005a15.372,15.372,0,0,0,15.18-15.365c.288-9.185.288-18.393,0-27.578A16.011,16.011,0,0,0,60.166,10.4L81.843,32.076a287.387,287.387,0,0,1-1.615,32.75Zm0,0" transform="translate(13.044 13.097)" fill="#ffa443"/>
      <path id="Trazado_625" data-name="Trazado 625" d="M40.67,19.2A15.2,15.2,0,1,0,19.2,40.67L54.364,75.837q2.792-.243,5.583-.541A17.279,17.279,0,0,0,75.3,59.946q.3-2.79.541-5.583Zm0,0" transform="translate(17.976 17.976)" fill="#ffa443"/>
      <path id="Trazado_626" data-name="Trazado 626" d="M61.313,42.1l-28.3-28.3a3.613,3.613,0,1,0-5.061,5.061L60.807,51.715q.334-4.808.506-9.618Zm0,0" transform="translate(33.4 15.574)" fill="#ffa443"/>
      <path id="Trazado_627" data-name="Trazado 627" d="M7.8,25.885c.2-1.4.348-2.8.6-4.185C9.824,13.85,15.381,8.51,23.326,8.236c9.566-.329,19.161-.346,28.726,0A15.372,15.372,0,0,1,67.232,23.6q.431,13.778,0,27.579A15.371,15.371,0,0,1,52.053,66.543c-9.565.345-19.162.354-28.726-.005C14.678,66.213,8.7,59.8,8.12,51.132c-.05-.749-.211-1.492-.32-2.238V25.884ZM37.632,61.416c4.377,0,8.759.131,13.131-.03,6.854-.254,11.07-4.345,11.23-11.192q.3-12.8,0-25.609c-.16-6.846-4.379-11.032-11.23-11.178q-13.044-.276-26.1,0c-6.8.143-11.027,4.244-11.212,11.015q-.352,12.96,0,25.936c.185,6.77,4.413,10.777,11.213,11.029,4.317.161,8.644.03,12.966.03Zm0,0" transform="translate(9.824 10.054)" fill="#ffa443"/>
      <g id="Grupo_47" data-name="Grupo 47" transform="translate(17.624 18.037)">
        <path id="Trazado_628" data-name="Trazado 628" d="M7.8,25.885c.2-1.4.348-2.8.6-4.185C9.824,13.85,15.381,8.51,23.326,8.236c9.566-.329,19.161-.346,28.726,0A15.372,15.372,0,0,1,67.232,23.6q.431,13.778,0,27.579A15.371,15.371,0,0,1,52.053,66.543c-9.565.345-19.162.354-28.726-.005C14.678,66.213,8.7,59.8,8.12,51.132c-.05-.749-.211-1.492-.32-2.238V25.884ZM37.632,61.416c4.377,0,8.759.131,13.131-.03,6.854-.254,11.07-4.345,11.23-11.192q.3-12.8,0-25.609c-.16-6.846-4.379-11.032-11.23-11.178q-13.044-.276-26.1,0c-6.8.143-11.027,4.244-11.212,11.015q-.352,12.96,0,25.936c.185,6.77,4.413,10.777,11.213,11.029,4.317.161,8.644.03,12.966.03Zm0,0" transform="translate(-7.8 -7.983)" fill="#fafcfc"/>
        <path id="Trazado_629" data-name="Trazado 629" d="M29.472,14.273a15.2,15.2,0,1,0,15.2,15.2A15.2,15.2,0,0,0,29.472,14.273Zm0,25.166a9.967,9.967,0,1,1,9.967-9.967A9.966,9.966,0,0,1,29.472,39.439Zm0,0" transform="translate(0.351 -0.061)" fill="#fff"/>
        <path id="Trazado_630" data-name="Trazado 630" d="M33.752,15.982a3.616,3.616,0,1,1-3.616-3.616A3.616,3.616,0,0,1,33.752,15.982Zm0,0" transform="translate(15.775 -2.463)" fill="#fff"/>
      </g>
    </g>
  </g>
</svg>
